<?xml version="1.0" encoding="iso-8859-1"?>
<!-- Generator: Adobe Illustrator 19.0.0, SVG Export Plug-In . SVG Version: 6.00 Build 0)  -->
<svg version="1.1" id="Capa_1" xmlns="http://www.w3.org/2000/svg" xmlns:xlink="http://www.w3.org/1999/xlink" x="0px" y="0px"
	 viewBox="0 0 511.999 511.999" style="enable-background:new 0 0 511.999 511.999;" xml:space="preserve">
<rect x="90.394" y="222.98" style="fill:#EF888F;" width="50.846" height="67.795"/>
<g>
	<rect x="90.394" y="222.98" style="fill:#F2A0A5;" width="24.482" height="67.795"/>
	<rect x="37.664" y="222.98" style="fill:#F2A0A5;" width="24.482" height="67.795"/>
</g>
<polygon style="fill:#EF888F;" points="247.558,140.147 199.619,188.086 234.513,222.98 171.371,222.98 171.371,290.775 
	232.755,290.775 199.619,323.911 247.558,371.85 363.409,255.999 "/>
<g>
	<polygon style="fill:#EA6069;" points="247.558,140.147 221.193,166.512 310.68,255.999 221.193,345.485 247.558,371.85 
		363.409,255.999 	"/>
	<polygon style="fill:#EA6069;" points="405.469,255.999 337.557,323.911 385.495,371.85 501.347,255.999 385.495,140.147 
		337.557,188.086 	"/>
</g>
<polygon style="fill:#E53844;" points="385.495,140.147 361.723,163.92 453.803,255.999 361.723,348.078 385.495,371.85 
	501.347,255.999 "/>
<path d="M385.494,382.503l-58.591-58.591L394.816,256l-67.913-67.913l58.591-58.591L511.999,256L385.494,382.503z M348.209,323.911
	l37.285,37.285l105.199-105.198L385.494,150.801l-37.285,37.285l67.913,67.913L348.209,323.911z"/>
<path d="M247.558,382.503l-58.592-58.591l25.603-25.603h-50.732v-82.861h52.49l-27.361-27.361l58.592-58.591L374.061,256
	L247.558,382.503z M210.271,323.911l37.286,37.285l105.198-105.198L247.558,150.801l-37.286,37.285l42.427,42.427h-73.795v52.73
	h72.038L210.271,323.911z"/>
<path d="M69.678,298.308H30.131v-82.861h39.547V298.308z M45.197,283.242h9.416v-52.73h-9.416V283.242z"/>
<path d="M148.773,298.308H82.861v-82.861h65.912V298.308z M97.926,283.242h35.781v-52.73H97.926V283.242z"/>
<rect y="215.447" width="15.066" height="82.861"/>
<g>
	<rect x="193.964" y="251.223" style="fill:#FFFFFF;" width="47.08" height="15.066"/>
	<rect x="256.115" y="251.223" style="fill:#FFFFFF;" width="22.598" height="15.066"/>
	<rect x="293.779" y="251.223" style="fill:#FFFFFF;" width="15.066" height="15.066"/>
</g>
<g>
</g>
<g>
</g>
<g>
</g>
<g>
</g>
<g>
</g>
<g>
</g>
<g>
</g>
<g>
</g>
<g>
</g>
<g>
</g>
<g>
</g>
<g>
</g>
<g>
</g>
<g>
</g>
<g>
</g>
</svg>
